<svg xmlns="http://www.w3.org/2000/svg" version="1.1" xmlns:xlink="http://www.w3.org/1999/xlink" xmlns:svgjs="http://svgjs.com/svgjs" width="1440" height="560" preserveAspectRatio="none" viewBox="0 0 1440 560"><g mask="url(&quot;#SvgjsMask1024&quot;)" fill="none"><rect width="1440" height="560" x="0" y="0" fill="url(#SvgjsRadialGradient1025)"></rect><path d="M1440 0L836.08 0L1440 44.84z" fill="rgba(255, 255, 255, .1)"></path><path d="M836.08 0L1440 44.84L1440 328.56000000000006L777.86 0z" fill="rgba(255, 255, 255, .075)"></path><path d="M777.86 0L1440 328.56000000000006L1440 473.01000000000005L524.8 0z" fill="rgba(255, 255, 255, .05)"></path><path d="M524.8 0L1440 473.01000000000005L1440 483.95000000000005L519.12 0z" fill="rgba(255, 255, 255, .025)"></path><path d="M0 560L180.77 560L0 441.53z" fill="rgba(0, 0, 0, .1)"></path><path d="M0 441.53L180.77 560L199.06 560L0 360.43999999999994z" fill="rgba(0, 0, 0, .075)"></path><path d="M0 360.44L199.06 560L307.38 560L0 176.95z" fill="rgba(0, 0, 0, .05)"></path><path d="M0 176.95L307.38 560L374.36 560L0 121.14999999999999z" fill="rgba(0, 0, 0, .025)"></path></g><defs><mask id="SvgjsMask1024"><rect width="1440" height="560" fill="#ffffff"></rect></mask><radialGradient cx="100%" cy="100%" r="1545.06" gradientUnits="userSpaceOnUse" id="SvgjsRadialGradient1025"><stop stop-color="#0e2a47" offset="0"></stop><stop stop-color="rgba(41, 98, 255, 1)" offset="1"></stop></radialGradient></defs></svg>